<svg xmlns="http://www.w3.org/2000/svg" viewBox="0 0 64 64" role="img" aria-label="Bˇng ß">
  <circle cx="32" cy="32" r="30" fill="#ffffff" stroke="#1a1a1a" stroke-width="2"/>
  <g fill="#1a1a1a">
    <polygon points="32,6 38.8,11.9 36.4,20.2 27.6,20.2 25.2,11.9"/>
    <polygon points="14.5,18 21.3,23.9 18.9,32.2 10.1,32.2 7.7,23.9"/>
    <polygon points="49.5,18 56.3,23.9 53.9,32.2 45.1,32.2 42.7,23.9"/>
    <polygon points="20,38.5 26.8,44.4 24.4,52.7 15.6,52.7 13.2,44.4"/>
    <polygon points="44,38.5 50.8,44.4 48.4,52.7 39.6,52.7 37.2,44.4"/>
    <polygon points="32,28 38.8,33.9 36.4,42.2 27.6,42.2 25.2,33.9"/>
  </g>
  <path fill="none" stroke="#1a1a1a" stroke-width="1.2" d="M32,6 L25.2,11.9 L14.5,18 L7.7,23.9 L10.1,32.2 L13.2,44.4 L20,38.5 L32,28 L44,38.5 L50.8,44.4 L53.9,32.2 L56.3,23.9 L49.5,18 L38.8,11.9 Z"/>
</svg>
